<?xml version="1.0" encoding="UTF-8" standalone="no"?>
<!DOCTYPE svg PUBLIC "-//W3C//DTD SVG 1.1//EN"
 "http://www.w3.org/Graphics/SVG/1.1/DTD/svg11.dtd">
<!-- Generated by graphviz version 2.43.0 (0)
 -->
<!-- Title: cluster1 Pages: 1 -->
<svg width="578pt" height="74pt"
 viewBox="0.00 0.00 577.50 74.00" xmlns="http://www.w3.org/2000/svg" xmlns:xlink="http://www.w3.org/1999/xlink">
<g id="graph0" class="graph" transform="scale(1 1) rotate(0) translate(4 70)">
<title>cluster1</title>
<polygon fill="white" stroke="transparent" points="-4,4 -4,-70 573.5,-70 573.5,4 -4,4"/>
<text text-anchor="middle" x="284.75" y="-10" font-family="Times,serif" font-size="20.00">Legend</text>
<!-- a -->
<g id="node1" class="node">
<title>a</title>
<polygon fill="#c34a36" stroke="black" points="65,-66 0,-66 0,-30 65,-30 65,-66"/>
<text text-anchor="middle" x="32.5" y="-44.3" font-family="Times,serif" font-size="14.00">pre&#45;2008</text>
</g>
<!-- b -->
<g id="node2" class="node">
<title>b</title>
<polygon fill="#845ec2" stroke="black" points="137.5,-66 83.5,-66 83.5,-30 137.5,-30 137.5,-66"/>
<text text-anchor="middle" x="110.5" y="-44.3" font-family="Times,serif" font-size="14.00">2008</text>
</g>
<!-- c -->
<g id="node3" class="node">
<title>c</title>
<polygon fill="#d65db1" stroke="black" points="209.5,-66 155.5,-66 155.5,-30 209.5,-30 209.5,-66"/>
<text text-anchor="middle" x="182.5" y="-44.3" font-family="Times,serif" font-size="14.00">2011</text>
</g>
<!-- d -->
<g id="node4" class="node">
<title>d</title>
<polygon fill="#ff6f91" stroke="black" points="281.5,-66 227.5,-66 227.5,-30 281.5,-30 281.5,-66"/>
<text text-anchor="middle" x="254.5" y="-44.3" font-family="Times,serif" font-size="14.00">2015</text>
</g>
<!-- e -->
<g id="node5" class="node">
<title>e</title>
<polygon fill="#ff9671" stroke="black" points="353.5,-66 299.5,-66 299.5,-30 353.5,-30 353.5,-66"/>
<text text-anchor="middle" x="326.5" y="-44.3" font-family="Times,serif" font-size="14.00">2017</text>
</g>
<!-- f -->
<g id="node6" class="node">
<title>f</title>
<polygon fill="#ffc75f" stroke="black" points="425.5,-66 371.5,-66 371.5,-30 425.5,-30 425.5,-66"/>
<text text-anchor="middle" x="398.5" y="-44.3" font-family="Times,serif" font-size="14.00">2020</text>
</g>
<!-- g -->
<g id="node7" class="node">
<title>g</title>
<polygon fill="#f9f871" stroke="black" points="497.5,-66 443.5,-66 443.5,-30 497.5,-30 497.5,-66"/>
<text text-anchor="middle" x="470.5" y="-44.3" font-family="Times,serif" font-size="14.00">2022</text>
</g>
<!-- h -->
<g id="node8" class="node">
<title>h</title>
<polygon fill="#fefedf" stroke="black" points="569.5,-66 515.5,-66 515.5,-30 569.5,-30 569.5,-66"/>
<text text-anchor="middle" x="542.5" y="-44.3" font-family="Times,serif" font-size="14.00">2023</text>
</g>
</g>
</svg>
